<?xml version="1.0" encoding="UTF-8"?>
<svg id="Layer_1" xmlns="http://www.w3.org/2000/svg" version="1.1" viewBox="0 0 821.89 261.77">
  <!-- Generator: Adobe Illustrator 29.7.1, SVG Export Plug-In . SVG Version: 2.1.1 Build 8)  -->
  <defs>
    <style>
      .st0 {
        fill: #fff;
      }
    </style>
  </defs>
  <g>
    <path class="st0" d="M622.35,54.23c-6.57-.76-14.58.64-21.31,0l-75.61,185.67h26.88l19.71-48.37,79.13.21,18.94,48.17h28.62l-75.08-185.03c-.28-.6-.73-.58-1.29-.64ZM578.81,169.89l32.87-83.15,32.11,83.15h-64.98Z"/>
    <path class="st0" d="M257.5,126.26c-8.52-4.01-16.44-9.31-18.89-19.02-4.17-16.49,5-28.97,21.07-32.31,16.85-3.5,32.62,2.12,45.28,13.16,1.64,1.43,3.58,4.12,5.21,5.24.33.22.41.53.97.38l12.99-17.79c-14.77-16.17-35.29-24.65-57.29-23.61-33.67,1.59-61.89,25.56-53.75,61.52,8.31,36.73,50.67,36.53,75.59,53.6,22.92,15.7,14.62,45.45-10.79,52.18-22.79,6.04-45.49-6.8-58.77-24.7l-.8-.25-14.67,17.54c10.62,12.37,23.49,23.21,39.41,27.9,39.06,11.51,87.8-10.45,84.73-56.1-2.55-37.81-42.63-44.73-70.29-57.74Z"/>
    <path class="st0" d="M450.78,76.3h76.98c.1-.28-.39-.46-.39-.58v-20.11c0-.1.31-.23.3-.39l-.5-.58h-102.31v185.26h25.92v-80.06h72.33v-21.66h-72.33v-61.88Z"/>
    <polygon class="st0" points="807.42 54.64 677.06 54.64 677.06 76.3 729.09 76.3 729.67 76.88 729.67 239.9 755.01 239.9 755.59 239.32 755.59 76.3 807.42 76.3 807.42 54.64"/>
    <polygon class="st0" points="357.95 239.32 358.53 239.9 383.86 239.9 383.86 54.64 357.95 54.64 357.95 239.32"/>
    <path class="st0" d="M789.93,192.82c-10.38,1.17-19.91,9.96-22.63,19.92-6.53,23.92,18.77,44.07,40.38,31.86,26.26-14.84,13.65-55.33-17.75-51.79ZM773.31,232.04c-8.17-14.6,1.17-33.45,17.77-35.35,19.18-2.19,33.17,17.94,23.88,35.1-8.85,16.35-32.57,16.49-41.66.25Z"/>
    <path class="st0" d="M797.17,203.54c-3.77-.45-8.32.33-12.18,0v34.81h4.64v-14.5c.83-.93,3.44-.88,4.28-.02l8.49,14.53h5.8l-9.67-15.28c11.35-2.83,10.47-18.13-1.36-19.53ZM789.63,219.4v-11.41l.58-.58h5.8c.5,0,2.74.94,3.3,1.34,2.68,1.89,3.11,6.25.93,8.69-.53.59-2.86,1.96-3.46,1.96h-7.16Z"/>
  </g>
  <g>
    <path class="st0" d="M170.36,128.92c-7.76-12.97-20.87-18.21-26.97-20.15-18.05-5.65-36.11-11.31-54.16-16.96-13.87-4.18-26.05-8.02-36.3-11.31-.81-.26-6.35-2.07-13.09-5.6-3.82-2.01-8.08-4.6-11.99-8.9-3.08-3.38-3.87-5.55-4.12-7.37-.37-2.78.48-5.33.63-5.76.45-1.31,1.03-2.32,1.49-3.02-1.28,1.2-2.93,2.88-4.67,5.03-4.19,5.15-6.32,9.82-7.28,11.95-4.4,9.79-5.04,19.28-5.41,25.4-.43,7.25-.92,15.31,2.12,25.24,1.12,3.66,2.95,9.48,7.6,15.68,6.28,8.37,14.01,12.49,18.19,14.35,33.13,10.87,66.27,21.74,99.4,32.61,5.64,1.88,9.97,4.16,12.93,5.96,5.84,3.54,8.72,6.59,10.5,8.94,1.87,2.46,2.7,4.37,2.9,6.43.24,2.38-.42,4.4-.71,5.17-.52,1.4-1.2,2.45-1.72,3.14,1.4-1.1,3.11-2.6,4.86-4.55,0,0,2.22-2.46,4.08-5.41,4.2-6.65,6.25-15.85,6.51-17.01,1.32-6.05,3.58-16.94,1.65-31.28-1.14-8.43-2.06-15.27-6.43-22.58Z"/>
    <path class="st0" d="M182.87,6.35c-.17-1.07-.27-1.7-.67-2.47-.68-1.28-1.7-1.96-2.35-2.39-.57-.38-1.53-.91-2.86-1.22-.89-.08-2.17-.19-3.72-.27-4.26-.23-8.51-.15-15.4.47-2.49.22-8.12.74-14.15,1.69-27.38,4.32-52.39,13.01-52.39,13.01-15.74,5.47-31.13,10.83-49.24,22.69-2.41,1.58-4.64,3.13-6.69,4.6-2.2,2.41-3.69,4.65-4.68,6.32-1.75,2.95-2.15,4.56-2.32,5.47-.18.95-.44,2.41-.07,4.14.46,2.15,1.66,3.64,2.68,4.75,4.33,4.69,10.17,7.65,10.82,7.99,6.23,3.27,11.43,5.01,12.41,5.32,12.49,4.01,24.34,7.7,36.23,11.29l4.65,1.46c8.78-3.81,16.29-6.64,22.02-8.67,14.81-5.22,28.63-8.9,40.84-12.15,2.91-.78,5.31-1.4,6.9-1.8,1.7-.31,4.37-1.04,7.13-2.9,2.67-1.8,4.17-3.83,4.63-4.47,1.66-2.34,2.3-4.48,2.67-5.72.57-1.96.76-3.66.82-4.89.41-5.22.82-10.43,1.22-15.65.58-7.69,1.15-15.37,1.69-23.06.1-1.47-.02-2.68-.16-3.53Z"/>
    <path class="st0" d="M155.83,197.58c-1.34-1.77-3.77-4.51-9.32-7.87-3.75-2.27-7.82-4.14-12.07-5.56l-42.28-13.87c-10.31,4.94-19.26,8.47-26.23,10.96-13.97,5-33.65,10.24-40.84,12.15-2.91.78-5.31,1.4-6.9,1.8-1.7.31-4.37,1.04-7.13,2.9-2.67,1.8-4.17,3.83-4.63,4.47-1.66,2.34-2.3,4.48-2.67,5.72-.57,1.96-.76,3.66-.82,4.89-.41,5.22-.82,10.43-1.22,15.65-.58,7.69-1.15,15.37-1.69,23.06-.1,1.47.02,2.68.16,3.53.17,1.07.27,1.7.67,2.47.68,1.28,1.7,1.96,2.35,2.39.57.38,1.53.91,2.86,1.22.89.08,2.17.19,3.72.27,4.26.23,8.51.15,15.4-.47,2.49-.22,8.12-.74,14.15-1.69,27.38-4.32,52.39-13.01,52.39-13.01,9.77-3.13,17.8-6.36,23.73-8.95,8-3.5,15.99-6.99,25.56-13.17,4.29-2.77,8.05-5.54,11.28-8.12,1.55-1.46,4.39-4.56,5.42-9.09.27-1.2.68-3.1.15-5.42-.39-1.69-1.11-3.03-2.05-4.27Z"/>
    <path class="st0" d="M153.94,215.05c-.49.35-1.02.78-1.6,1.3.55-.44,1.08-.87,1.6-1.3Z"/>
  </g>
</svg>